<svg width="24" height="24" viewBox="0 0 24 24" fill="none" xmlns="http://www.w3.org/2000/svg">
<path d="M7.68463 4C7.35833 4 7.09351 3.7312 7.09351 3.4V1.8C7.09351 1.4688 7.35833 1.2 7.68463 1.2C8.01093 1.2 8.27575 1.4688 8.27575 1.8V3.4C8.27575 3.7312 8.01093 4 7.68463 4Z" fill="#B91F1F"/>
<path d="M4.53192 5.6C4.38059 5.6 4.22926 5.5416 4.1138 5.4244L2.93155 4.2244C2.81332 4.104 2.75854 3.9576 2.75854 3.8C2.75854 3.4492 3.02967 3.2 3.34967 3.2C3.5006 3.2 3.65232 3.2584 3.76779 3.3756L4.95004 4.5756C5.07181 4.6996 5.12304 4.8392 5.12304 5C5.12304 5.3596 4.84364 5.6 4.53192 5.6Z" fill="#B91F1F"/>
<path d="M3.54679 8.20001C3.54679 7.86881 3.28196 7.60001 2.95566 7.60001H1.37933C1.05303 7.60001 0.788208 7.86881 0.788208 8.20001C0.788208 8.53121 1.05303 8.80001 1.37933 8.80001H2.95566C3.28196 8.80001 3.54679 8.53121 3.54679 8.20001Z" fill="#B91F1F"/>
<path d="M9.45803 7.60001C6.41098 7.60001 3.94087 10.1072 3.94087 13.2C3.94087 14.5984 4.44963 15.8744 5.2847 16.856L2.37597 20.1292C2.12376 20.4124 1.97046 20.788 1.97046 21.2C1.97046 22.0836 2.67626 22.8 3.54679 22.8C4.15092 22.8 4.67584 22.4552 4.94027 21.9484L6.9158 18.1668C7.67678 18.5692 8.54061 18.8 9.45803 18.8C12.5051 18.8 14.9752 16.2928 14.9752 13.2C14.9752 10.1072 12.5051 7.60001 9.45803 7.60001ZM9.45803 17.2C7.28151 17.2 5.5172 15.4088 5.5172 13.2C5.5172 10.9908 7.28151 9.20001 9.45803 9.20001C11.6346 9.20001 13.3989 10.9908 13.3989 13.2C13.3989 15.4088 11.6346 17.2 9.45803 17.2Z" fill="#B91F1F"/>
<path d="M8.27576 16.1644C8.64147 16.3152 9.03988 16.4 9.45801 16.4C11.1963 16.4 12.6107 14.9644 12.6107 13.2C12.6107 12.6168 12.4538 12.0716 12.1843 11.6H8.27576V16.1644Z" fill="#B91F1F"/>
<path d="M15.556 11.6C15.6865 12.1124 15.7633 12.6468 15.7633 13.2C15.7633 14.7612 15.2085 16.192 14.2899 17.3044L14.9752 18L17.1426 15.8L20.4923 19.2V21.6H9.85209V19.5796C9.72125 19.588 9.59121 19.6 9.458 19.6C9.05643 19.6 8.66235 19.5596 8.27576 19.4848V23.2H22.0687V11.6H15.556Z" fill="#B91F1F"/>
<path d="M11.0343 4V7.0104C11.482 7.128 11.9103 7.292 12.3135 7.5016L13.3988 6.4L14.581 7.6L16.1574 6L18.1278 8V9.2H14.3726C14.6638 9.5684 14.9129 9.9716 15.1194 10.4H19.31V4H11.0343Z" fill="#B91F1F"/>
<path d="M14.9751 1.2V3.2H20.0982V6.4H22.4627V1.2H14.9751Z" fill="#B91F1F"/>
</svg>
