<svg width="35" height="35" viewBox="0 0 35 35" fill="none" xmlns="http://www.w3.org/2000/svg">
<path d="M17.5 3.28125C9.66 3.28125 3.28125 9.66 3.28125 17.5C3.28125 25.34 9.66 31.7188 17.5 31.7188C25.34 31.7188 31.7188 25.34 31.7188 17.5C31.7188 9.66 25.34 3.28125 17.5 3.28125ZM17.5 29.5312C10.866 29.5312 5.46875 24.134 5.46875 17.5C5.46875 10.866 10.866 5.46875 17.5 5.46875C24.134 5.46875 29.5312 10.866 29.5312 17.5C29.5312 24.134 24.134 29.5312 17.5 29.5312ZM24.4271 17.5C24.4271 18.1038 23.9371 18.5938 23.3333 18.5938H17.5C16.8963 18.5938 16.4062 18.1038 16.4062 17.5V10.2083C16.4062 9.60458 16.8963 9.11458 17.5 9.11458C18.1038 9.11458 18.5938 9.60458 18.5938 10.2083V16.4062H23.3333C23.9371 16.4062 24.4271 16.8963 24.4271 17.5Z" fill="#41416E"/>
</svg>
