<svg width="35" height="35" viewBox="0 0 35 35" fill="none" xmlns="http://www.w3.org/2000/svg">
<path d="M17.5 3.64587C9.85837 3.64587 3.64587 9.85837 3.64587 17.5C3.64587 25.1417 9.85837 31.3542 17.5 31.3542C25.1417 31.3542 31.3542 25.1417 31.3542 17.5C31.3542 9.85837 25.1417 3.64587 17.5 3.64587ZM23.3334 18.9584H17.5C16.698 18.9584 16.0417 18.3021 16.0417 17.5V10.2084C16.0417 9.40629 16.698 8.75004 17.5 8.75004C18.3021 8.75004 18.9584 9.40629 18.9584 10.2084V16.0417H23.3334C24.1355 16.0417 24.7917 16.698 24.7917 17.5C24.7917 18.3021 24.1355 18.9584 23.3334 18.9584Z" fill="#41416E"/>
</svg>
