<svg width="35" height="35" viewBox="0 0 35 35" fill="none" xmlns="http://www.w3.org/2000/svg">
<path d="M31.3542 16.0417V30.625C31.3542 30.9167 31.1792 31.1937 30.9021 31.2958C30.8146 31.3395 30.7125 31.3542 30.625 31.3542C30.4355 31.3542 30.2459 31.2814 30.1001 31.1356L27.4604 28.4375H14.5834C11.7688 28.4375 9.47921 26.1479 9.47921 23.3333H20.4167C24.4417 23.3333 27.7084 20.0667 27.7084 16.0417V11.1561C29.8084 11.7832 31.3542 13.7375 31.3542 16.0417ZM25.5209 16.0417V8.75001C25.5209 5.93543 23.2313 3.64584 20.4167 3.64584H8.75004C5.93546 3.64584 3.64587 5.93543 3.64587 8.75001V23.3333C3.64587 23.625 3.82087 23.902 4.09795 24.0041C4.18545 24.0479 4.28754 24.0625 4.37504 24.0625C4.56462 24.0625 4.75419 23.9897 4.90002 23.8439L7.53964 21.1458H20.4167C23.2313 21.1458 25.5209 18.8563 25.5209 16.0417Z" fill="#324AA0"/>
</svg>
