<svg width="39" height="39" viewBox="0 0 39 39" fill="none" xmlns="http://www.w3.org/2000/svg">
<path d="M9.78039 32.2734C11.1087 33.3777 12.8234 33.8439 14.511 33.5648C14.5639 33.556 14.6168 33.5473 14.6695 33.5372C25.457 31.4504 32.7336 21.2895 31.2331 10.4064C30.9895 8.63903 29.9731 7.0943 28.4452 6.16517C26.993 5.28067 25.2624 5.09738 23.6932 5.65379C23.4523 5.73962 23.2488 5.83168 23.0768 5.92144C22.3998 6.27731 21.9815 6.98368 21.9873 7.76039L22.0331 13.6828C22.0387 14.4247 22.4421 15.1107 23.0837 15.4757C23.2129 15.5491 23.3455 15.6176 23.4824 15.6785C23.8326 15.8408 24.0123 16.186 23.9249 16.5336C23.0828 19.8853 21.0221 22.7626 18.1214 24.6388C17.8194 24.8351 17.4344 24.7735 17.1615 24.4883C17.0824 24.4066 17.0009 24.3268 16.9187 24.2512C16.3669 23.7459 15.5731 23.59 14.8547 23.83L9.13991 25.7804C8.38549 26.039 7.84551 26.6927 7.76275 27.4478C7.74789 27.5855 7.73729 27.7406 7.73549 27.9151C7.72146 29.5912 8.46614 31.1779 9.78039 32.2734Z" fill="#23FFFF"/>
</svg>
