<svg width="35" height="35" viewBox="0 0 35 35" fill="none" xmlns="http://www.w3.org/2000/svg">
<path d="M26.25 10.5729H25.8854V8.75C25.8854 5.73417 23.4325 3.28125 20.4167 3.28125H8.75C5.73417 3.28125 3.28125 5.73417 3.28125 8.75V23.3333C3.28125 23.7781 3.55105 24.1777 3.96084 24.3454C4.09501 24.4008 4.235 24.4271 4.375 24.4271C4.66375 24.4271 4.94668 24.3134 5.15668 24.099L7.6927 21.5104H9.11458V23.3333C9.11458 26.3492 11.5675 28.8021 14.5833 28.8021H27.3073L29.8433 31.3907C30.0533 31.605 30.3363 31.7188 30.625 31.7188C30.765 31.7188 30.905 31.6925 31.0392 31.637C31.4504 31.4693 31.7188 31.0683 31.7188 30.625V16.0417C31.7188 13.0258 29.2658 10.5729 26.25 10.5729ZM7.23332 19.3229C6.93874 19.3229 6.65731 19.441 6.45168 19.651L5.46875 20.6543V8.75C5.46875 6.94021 6.94021 5.46875 8.75 5.46875H20.4167C22.2265 5.46875 23.6979 6.94021 23.6979 8.75V16.0417C23.6979 17.8515 22.2265 19.3229 20.4167 19.3229H7.23332ZM29.5312 27.946L28.5483 26.9427C28.3427 26.7327 28.0613 26.6146 27.7667 26.6146H14.5833C12.7735 26.6146 11.3021 25.1431 11.3021 23.3333V21.5104H20.4167C23.4325 21.5104 25.8854 19.0575 25.8854 16.0417V12.7604H26.25C28.0598 12.7604 29.5312 14.2319 29.5312 16.0417V27.946Z" fill="#324AA0"/>
</svg>
