<svg width="40" height="40" viewBox="0 0 40 40" fill="none" xmlns="http://www.w3.org/2000/svg">
<path d="M35.7014 9.44858L30.2348 31.3154C29.4515 34.4321 26.7848 35.832 24.4514 35.832C24.4348 35.832 24.4182 35.832 24.4182 35.832C22.0682 35.8154 19.3848 34.382 18.6515 31.232L17.2181 25.1489L26.1848 16.182C26.8348 15.532 26.8348 14.4654 26.1848 13.8154C25.5348 13.1654 24.4681 13.1654 23.8181 13.8154L14.8514 22.7819L8.76813 21.3488C5.61813 20.6155 4.18478 17.9322 4.16812 15.5989C4.15145 13.2489 5.55149 10.5489 8.68482 9.76555L30.5515 4.29884C32.0015 3.93217 33.5181 4.34871 34.5848 5.41538C35.6514 6.48204 36.0681 7.99858 35.7014 9.44858Z" fill="#34A853"/>
</svg>
