<svg width="24" height="24" viewBox="0 0 24 24" fill="none" xmlns="http://www.w3.org/2000/svg">
<path d="M2 5.60001H4.4V18.4H2V5.60001Z" fill="#4285F4"/>
<path d="M19.6001 5.60001H22.0001V18.4H19.6001V5.60001Z" fill="#4285F4"/>
<path d="M18 4.4V2.4H20.7999V1.2H16.8V3.2H14V5.6H9.99995V3.2H7.19995V1.2H3.19995V2.4H5.99995V4.4H8.79995V5.6H5.19995V18.4H8.79995V19.6H5.99995V21.6H3.19995V22.8H7.19995V20.8H9.99995V18.4H14V20.8H16.8V22.8H20.7999V21.6H18V19.6H15.2V18.4H18.8V5.6H15.2V4.4H18ZM12 16.4C9.56995 16.4 7.59995 14.43 7.59995 12C7.59995 9.57 9.56995 7.6 12 7.6C14.43 7.6 16.4 9.57 16.4 12C16.4 14.43 14.43 16.4 12 16.4Z" fill="#4285F4"/>
<path d="M12 8.8C10.2328 8.8 8.80005 10.2328 8.80005 12C8.80005 13.7672 10.2328 15.2 12 15.2C13.7672 15.2 15.2 13.7672 15.2 12C15.2 10.2328 13.7672 8.8 12 8.8ZM12 14C10.8952 14 10 13.1048 10 12C10 10.8952 10.8952 10 12 10C13.1048 10 14 10.8952 14 12C14 13.1048 13.1048 14 12 14Z" fill="#4285F4"/>
</svg>
