<svg width="22" height="22" viewBox="0 0 22 22" fill="none" xmlns="http://www.w3.org/2000/svg">
<path d="M18.7129 3.36928C17.9695 2.91462 17.0601 2.87978 16.2837 3.27853L14.257 4.31896C13.9407 4.48213 13.5631 4.48213 13.2459 4.31896L9.38581 2.33703C9.03381 2.15644 8.64789 2.0657 8.26197 2.06478C8.2583 2.06478 8.25464 2.06299 8.25098 2.06299C8.24731 2.06299 8.24365 2.06478 8.23998 2.06478C7.85406 2.06661 7.46905 2.15644 7.11614 2.33703L3.9564 3.95954C2.78856 4.55904 2.06348 5.76171 2.06348 7.09637V16.4253C2.06348 17.3374 2.52181 18.1615 3.28906 18.6299C4.0334 19.0855 4.94273 19.1194 5.71823 18.7207L7.74497 17.6802C8.06122 17.5171 8.43889 17.5171 8.75605 17.6802L12.6161 19.662C12.9663 19.8426 13.3504 19.9316 13.7345 19.9334C13.74 19.9334 13.7446 19.9371 13.7501 19.9371C13.7556 19.9371 13.7601 19.9343 13.7656 19.9334C14.1497 19.9307 14.5338 19.8417 14.884 19.662L18.0437 18.0395C19.2116 17.44 19.9366 16.2374 19.9366 14.9027V5.57378C19.9385 4.66261 19.4801 3.8377 18.7129 3.36928ZM5.09031 17.4987C4.73739 17.6793 4.34322 17.6647 4.00588 17.4584C3.65022 17.2421 3.43848 16.8562 3.43848 16.4272V7.09828C3.43848 6.28061 3.87757 5.54727 4.58523 5.18427L7.56348 3.65529V16.2943C7.41131 16.3383 7.26006 16.386 7.11706 16.4602L5.09031 17.4987ZM9.38581 16.4583C9.24281 16.385 9.09064 16.3364 8.93848 16.2924V3.65339L12.6161 5.54178C12.7591 5.61511 12.9113 5.66361 13.0635 5.70761V18.3467L9.38581 16.4583ZM18.5635 14.9037C18.5635 15.7214 18.1244 16.4546 17.4167 16.8176L14.4385 18.3467V5.70761C14.5906 5.66361 14.7419 5.61603 14.8849 5.54178L16.9107 4.50135C17.2627 4.32077 17.6578 4.33539 17.9951 4.54164C18.3508 4.75797 18.5626 5.14389 18.5626 5.57289V14.9037H18.5635Z" fill="#0E964C"/>
</svg>
