<svg width="18" height="18" viewBox="0 0 18 18" fill="none" xmlns="http://www.w3.org/2000/svg">
<path d="M8.9156 3.6285L14.3719 9.08535L6.88848 16.5789C6.53799 16.9295 6.09273 17.1568 5.60962 17.2421L1.11955 17.9905C1.06271 18 1.01536 18 0.958527 18C0.712235 18 0.465923 17.8957 0.28594 17.7157C0.0680669 17.4978 -0.0361125 17.1853 0.0112513 16.8822L0.759578 12.3917C0.844833 11.9085 1.07219 11.4631 1.42268 11.1126L8.9156 3.6285ZM16.8633 1.1368C16.1339 0.397849 15.1676 0 14.1351 0C13.1026 0 12.1363 0.397849 11.4069 1.1368L10.2608 2.28307L15.7171 7.73993L16.8633 6.59365C17.6021 5.86417 18 4.89797 18 3.86534C18 2.83271 17.6021 1.86627 16.8633 1.1368Z" fill="#324AA0"/>
</svg>
