<svg width="25" height="25" viewBox="0 0 25 25" fill="none" xmlns="http://www.w3.org/2000/svg">
<path fill-rule="evenodd" clip-rule="evenodd" d="M18.3767 0C17.6119 0 16.9802 0.325934 16.3822 0.790629C15.8158 1.23089 15.1868 1.87162 14.4325 2.64001L7.92495 9.26857C7.42523 9.77675 7.03011 10.1786 6.78778 10.6921C6.54545 11.2057 6.48425 11.771 6.40685 12.4859L6.38584 12.6792C6.24106 14.0061 6.12172 15.0999 6.14904 15.9614C6.1776 16.8625 6.36877 17.6878 7.00207 18.3329C7.63538 18.978 8.44565 19.1727 9.33025 19.2018C10.1761 19.2297 11.2498 19.1081 12.5525 18.9606L12.7422 18.9392C13.4441 18.8604 13.9991 18.798 14.5032 18.5512C15.0074 18.3044 15.4019 17.9019 15.9008 17.3929L22.4082 10.7642C23.1626 9.99588 23.7916 9.35518 24.2238 8.77815C24.68 8.16909 25 7.5256 25 6.74658C25 5.96757 24.68 5.32407 24.2238 4.71501C23.7916 4.13798 23.1626 3.49728 22.4082 2.72895L22.321 2.64005C21.5666 1.87164 20.9376 1.23089 20.3711 0.790629C19.7732 0.325934 19.1415 0 18.3767 0ZM21.7334 8.88298L16.2793 3.32742C16.761 2.84406 17.1335 2.48862 17.4625 2.23288C17.9021 1.89131 18.1579 1.81411 18.3767 1.81411C18.5955 1.81411 18.8513 1.89131 19.2909 2.23288C19.7509 2.59043 20.2959 3.14285 21.1052 3.96725C21.9146 4.79165 22.4569 5.34679 22.8079 5.81541C23.1433 6.2631 23.219 6.52369 23.219 6.74658C23.219 6.96947 23.1433 7.23006 22.8079 7.67775C22.5569 8.01294 22.2079 8.39239 21.7334 8.88298ZM15.0185 4.60863L20.4756 10.1673L14.7273 16.0226C14.101 16.6605 13.928 16.8201 13.7317 16.9161C13.5355 17.0122 13.3051 17.0502 12.4248 17.1498C11.0357 17.307 10.0902 17.4118 9.38773 17.3887C8.70909 17.3663 8.43512 17.2271 8.2614 17.0502C8.08768 16.8732 7.95098 16.5941 7.92907 15.9029C7.90638 15.1873 8.00923 14.2242 8.16358 12.8092C8.26138 11.9126 8.29865 11.6779 8.39296 11.478C8.48728 11.2781 8.64394 11.1018 9.27018 10.4639L15.0185 4.60863Z" fill="white"/>
<path d="M9.2123 3.23935C9.70406 3.23334 10.0979 2.8224 10.092 2.32149C10.0861 1.82057 9.68272 1.41937 9.19095 1.42537C6.30993 1.46055 4.33241 1.62112 2.8142 2.7447C2.23462 3.17363 1.72493 3.6928 1.30384 4.28317C0.608286 5.25834 0.296834 6.40048 0.146903 7.81008C-1.72499e-05 9.19139 -9.53823e-06 10.9325 1.57125e-07 13.1536V13.263C-9.53823e-06 15.4841 -1.72499e-05 17.2252 0.146903 18.6065C0.296834 20.0161 0.608286 21.1583 1.30384 22.1334C1.72493 22.7238 2.23462 23.243 2.8142 23.6719C3.77155 24.3804 4.89282 24.6976 6.27667 24.8504C7.63271 25 9.34193 25 11.5224 25H11.63C13.8105 25 15.5198 25 16.8758 24.8504C18.2597 24.6976 19.3809 24.3804 20.3383 23.6719C20.9179 23.243 21.4276 22.7238 21.8486 22.1334C22.9517 20.587 23.1093 18.5726 23.1439 15.638C23.1498 15.1371 22.7559 14.7261 22.2641 14.7201C21.7724 14.7141 21.3689 15.1153 21.363 15.6162C21.3274 18.6407 21.1275 20.058 20.4078 21.0671C20.0966 21.5035 19.7198 21.8872 19.2915 22.2042C18.6883 22.6506 17.9163 22.9108 16.684 23.0468C15.435 23.1846 13.8221 23.1859 11.5762 23.1859C9.33036 23.1859 7.71749 23.1846 6.4685 23.0468C5.23618 22.9108 4.46417 22.6506 3.86102 22.2042C3.43264 21.8872 3.05591 21.5035 2.74467 21.0671C2.30645 20.4527 2.05102 19.6664 1.9175 18.4111C1.78218 17.1389 1.78096 15.496 1.78096 13.2083C1.78096 10.9206 1.78218 9.27772 1.9175 8.00549C2.05102 6.75023 2.30645 5.96385 2.74467 5.34947C3.05591 4.91312 3.43264 4.52938 3.86102 4.21235C4.85165 3.47921 6.24308 3.2756 9.2123 3.23935Z" fill="white"/>
</svg>
