<svg width="22" height="22" viewBox="0 0 22 22" fill="none" xmlns="http://www.w3.org/2000/svg">
<path d="M19.4223 8.02296C18.3187 4.87421 15.5824 2.62571 12.2797 2.1518C11.4519 2.03355 10.549 2.03355 9.72034 2.1518C6.4185 2.6248 3.68134 4.87427 2.58042 8.01569C2.23667 8.96535 2.0625 9.96911 2.0625 10.9994C2.0625 12.0298 2.23668 13.0335 2.57768 13.9767C3.68134 17.1255 6.41759 19.3741 9.72034 19.848C10.1374 19.9066 10.5683 19.9369 11 19.9369C11.4318 19.9369 11.8617 19.9067 12.2797 19.8471C15.5815 19.3741 18.3187 17.1246 19.4196 13.9832C19.7633 13.0335 19.9375 12.0298 19.9375 10.9994C19.9375 9.96911 19.7633 8.96621 19.4223 8.02296ZM17.732 7.56373H14.9426C14.6566 6.2914 14.2211 5.06946 13.6198 3.91721C15.3963 4.57079 16.8694 5.85782 17.732 7.56373ZM18.5625 11.0003C18.5625 11.7071 18.4608 12.3973 18.2683 13.0637H15.1947C15.2891 12.3799 15.3542 11.6915 15.3542 11.0003C15.3542 10.3083 15.29 9.61982 15.1956 8.93873H18.2692C18.4607 9.6024 18.5625 10.2927 18.5625 11.0003ZM8.19316 13.0637C8.08866 12.3817 8.02083 11.6924 8.02083 11.0003C8.02083 10.3101 8.08866 9.62165 8.19316 8.93873H13.8077C13.9113 9.61982 13.9792 10.3083 13.9792 11.0003C13.9792 11.6915 13.9113 12.3808 13.8068 13.0637H8.19316ZM3.73174 13.0637C3.54015 12.3991 3.4375 11.708 3.4375 11.0003C3.4375 10.2945 3.53924 9.60515 3.73174 8.93873H6.80534C6.71093 9.62073 6.64583 10.3092 6.64583 11.0003C6.64583 11.6924 6.71093 12.3817 6.80534 13.0637H3.73174ZM11.7782 3.49189C12.5867 4.7523 13.1716 6.11813 13.5309 7.56463H8.46814C8.82748 6.12088 9.41142 4.75514 10.2218 3.49289C10.4784 3.46723 10.7342 3.43873 11 3.43873C11.2658 3.43782 11.5216 3.46622 11.7782 3.49189ZM8.37924 3.91822C7.77699 5.07138 7.34158 6.29413 7.0565 7.56463H4.26801C5.12967 5.85871 6.60183 4.5718 8.37924 3.91822ZM4.2689 14.4387H7.05739C7.34339 15.7101 7.77883 16.9311 8.37924 18.0825C6.60366 17.4289 5.1324 16.1446 4.2689 14.4387ZM10.2218 18.5088C9.41325 17.2484 8.82935 15.8843 8.4691 14.4396H13.5309C13.1716 15.8825 12.5876 17.2475 11.7791 18.5088C11.2631 18.5601 10.7369 18.5601 10.2218 18.5088ZM13.6208 18.0825C14.2221 16.9302 14.6575 15.7092 14.9426 14.4387H17.7311C16.8694 16.1428 15.3973 17.4289 13.6208 18.0825Z" fill="white"/>
</svg>
