<svg width="42" height="42" viewBox="0 0 42 42" fill="none" xmlns="http://www.w3.org/2000/svg">
<g clip-path="url(#clip0_131_125)">
<path d="M41.5905 21.4837C41.5905 20.0562 41.4748 18.6209 41.2278 17.2166H21.42V25.3033H32.763C32.2923 27.9114 30.7799 30.2186 28.5653 31.6847V36.9318H35.3326C39.3065 33.2742 41.5905 27.8728 41.5905 21.4837Z" fill="#4285F4"/>
<path d="M21.42 42.0014C27.0838 42.0014 31.8602 40.1418 35.3403 36.9318L28.573 31.6847C26.6903 32.9656 24.2596 33.691 21.4277 33.691C15.9491 33.691 11.3039 29.9948 9.63715 25.0255H2.65387V30.4347C6.21882 37.526 13.4799 42.0014 21.42 42.0014V42.0014Z" fill="#34A853"/>
<path d="M9.62943 25.0255C8.74977 22.4174 8.74977 19.5932 9.62943 16.9851V11.5759H2.65386C-0.324643 17.5098 -0.324643 24.5008 2.65386 30.4346L9.62943 25.0255V25.0255Z" fill="#FBBC04"/>
<path d="M21.42 8.3119C24.4139 8.26561 27.3076 9.39219 29.4758 11.4602L35.4714 5.46458C31.675 1.89963 26.6362 -0.0603155 21.42 0.00141517C13.4799 0.00141517 6.21882 4.47689 2.65387 11.5759L9.62943 16.9851C11.2884 12.008 15.9414 8.3119 21.42 8.3119V8.3119Z" fill="#EA4335"/>
</g>
<defs>
<clipPath id="clip0_131_125">
<path d="M0 15C0 6.71573 6.71573 0 15 0H27C35.2843 0 42 6.71573 42 15V27C42 35.2843 35.2843 42 27 42H15C6.71573 42 0 35.2843 0 27V15Z" fill="white"/>
</clipPath>
</defs>
</svg>
