<svg width="35" height="35" viewBox="0 0 35 35" fill="none" xmlns="http://www.w3.org/2000/svg">
<path d="M29.1346 10.6683L21.8429 4.80372C19.3258 2.78031 15.6742 2.78031 13.1571 4.80372L5.86542 10.6683C4.22334 11.9885 3.28125 13.9536 3.28125 16.0601V24.8015C3.28125 28.6178 6.38896 31.7237 10.2083 31.7237H14.2188V24.8015C14.2188 22.9954 15.6902 21.525 17.5 21.525C19.3098 21.525 20.7812 22.9954 20.7812 24.8015V31.7237H24.7917C28.611 31.7237 31.7188 28.6193 31.7188 24.8015V16.0601C31.7188 13.9536 30.7767 11.9885 29.1346 10.6683ZM29.5312 24.8015C29.5312 27.4113 27.405 29.5354 24.7917 29.5354H22.9688V24.8015C22.9688 21.789 20.5158 19.3366 17.5 19.3366C14.4842 19.3366 12.0312 21.789 12.0312 24.8015V29.5354H10.2083C7.595 29.5354 5.46875 27.4113 5.46875 24.8015V16.0601C5.46875 14.6202 6.11187 13.2767 7.23479 12.3737L14.5265 6.50911C16.2502 5.12467 18.7498 5.12467 20.4721 6.50911L27.7637 12.3737C28.8867 13.2767 29.5298 14.6202 29.5298 16.0601V24.8015H29.5312Z" fill="#324AA0"/>
</svg>
