<svg width="22" height="22" viewBox="0 0 22 22" fill="none" xmlns="http://www.w3.org/2000/svg">
<path d="M11.6877 19.25C11.6877 19.6295 11.3797 19.9375 11.0002 19.9375H7.33354C4.93279 19.9375 2.97937 17.9841 2.97937 15.5833V6.41667C2.97937 4.01592 4.93279 2.0625 7.33354 2.0625H11.0002C11.3797 2.0625 11.6877 2.3705 11.6877 2.75C11.6877 3.1295 11.3797 3.4375 11.0002 3.4375H7.33354C5.69087 3.4375 4.35437 4.774 4.35437 6.41667V15.5833C4.35437 17.226 5.69087 18.5625 7.33354 18.5625H11.0002C11.3797 18.5625 11.6877 18.8705 11.6877 19.25ZM18.8194 10.5141L15.1527 6.84747C14.8841 6.57889 14.4487 6.57889 14.1801 6.84747C13.9115 7.11606 13.9115 7.55151 14.1801 7.82009L16.6734 10.3134H9.16687C8.78737 10.3134 8.47937 10.6214 8.47937 11.0009C8.47937 11.3804 8.78737 11.6884 9.16687 11.6884H16.6734L14.1801 14.1817C13.9115 14.4503 13.9115 14.8857 14.1801 15.1543C14.3139 15.2882 14.4899 15.356 14.6659 15.356C14.8419 15.356 15.0179 15.2891 15.1518 15.1543L18.8184 11.4877C19.0879 11.2172 19.088 10.7827 18.8194 10.5141Z" fill="white"/>
</svg>
