<svg width="35" height="35" viewBox="0 0 35 35" fill="none" xmlns="http://www.w3.org/2000/svg">
<path d="M17.5001 9.11458C14.4842 9.11458 12.0313 11.5675 12.0313 14.5833C12.0313 17.5992 14.4842 20.0521 17.5001 20.0521C20.5159 20.0521 22.9688 17.5992 22.9688 14.5833C22.9688 11.5675 20.5159 9.11458 17.5001 9.11458ZM17.5001 17.8646C15.6903 17.8646 14.2188 16.3931 14.2188 14.5833C14.2188 12.7735 15.6903 11.3021 17.5001 11.3021C19.3099 11.3021 20.7813 12.7735 20.7813 14.5833C20.7813 16.3931 19.3099 17.8646 17.5001 17.8646ZM17.4943 3.28125C11.0543 3.28125 6.198 8.14042 6.198 14.5833C6.198 23.6367 13.1047 29.2774 16.0724 31.2812C16.504 31.5728 16.9984 31.7188 17.4943 31.7188C17.9872 31.7188 18.4815 31.573 18.9132 31.2828C21.8867 29.2747 28.8022 23.6265 28.8022 14.5819C28.8022 8.13899 23.9415 3.28125 17.4943 3.28125ZM17.6897 29.47C17.5686 29.5517 17.4184 29.5517 17.2974 29.47C15.2061 28.0583 8.3855 22.8127 8.3855 14.5833C8.3855 9.38729 12.3011 5.46875 17.4943 5.46875C22.6932 5.46875 26.6147 9.38729 26.6147 14.5833C26.6147 22.5794 20.373 27.6588 17.6897 29.47Z" fill="#324AA0"/>
</svg>
