<svg width="35" height="35" viewBox="0 0 35 35" fill="none" xmlns="http://www.w3.org/2000/svg">
<path d="M20.4167 14.5833C20.4167 16.1875 19.1042 17.5 17.5 17.5C15.8958 17.5 14.5833 16.1875 14.5833 14.5833C14.5833 12.9791 15.8958 11.6666 17.5 11.6666C19.1042 11.6666 20.4167 12.9791 20.4167 14.5833ZM28.4375 14.5833C28.4375 23.45 21.6271 29.0062 18.7104 30.975C18.3458 31.2375 17.9229 31.3541 17.5 31.3541C17.0771 31.3541 16.6542 31.2375 16.275 30.975C13.3583 29.0062 6.5625 23.4646 6.5625 14.5833C6.5625 8.34165 11.2583 3.64581 17.5 3.64581C23.7271 3.64581 28.4375 8.34165 28.4375 14.5833ZM23.3333 14.5833C23.3333 11.3604 20.7229 8.74998 17.5 8.74998C14.2771 8.74998 11.6667 11.3604 11.6667 14.5833C11.6667 17.8062 14.2771 20.4166 17.5 20.4166C20.7229 20.4166 23.3333 17.8062 23.3333 14.5833Z" fill="#324AA0"/>
</svg>
