<svg width="23" height="22" viewBox="0 0 23 22" fill="none" xmlns="http://www.w3.org/2000/svg">
<path d="M17.125 0.25H5.875C2.77338 0.25 0.25 2.77338 0.25 5.875V20.5C0.25 20.9545 0.524505 21.3663 0.94413 21.5396C1.08363 21.5981 1.22987 21.625 1.375 21.625C1.6675 21.625 1.9555 21.5103 2.17038 21.2954L4.88613 18.5796C5.09875 18.3681 5.38114 18.25 5.68264 18.25H17.125C20.2266 18.25 22.75 15.7266 22.75 12.625V5.875C22.75 2.77338 20.2266 0.25 17.125 0.25ZM20.5 12.625C20.5 14.4858 18.9857 16 17.125 16H5.68264C4.78151 16 3.93325 16.3509 3.29538 16.9888L2.5 17.7842V5.875C2.5 4.01425 4.01425 2.5 5.875 2.5H17.125C18.9857 2.5 20.5 4.01425 20.5 5.875V12.625ZM8.40625 9.25C8.40625 10.0262 7.77625 10.6562 7 10.6562C6.22375 10.6562 5.59375 10.0262 5.59375 9.25C5.59375 8.47375 6.22375 7.84375 7 7.84375C7.77625 7.84375 8.40625 8.47375 8.40625 9.25ZM12.9062 9.25C12.9062 10.0262 12.2762 10.6562 11.5 10.6562C10.7238 10.6562 10.0938 10.0262 10.0938 9.25C10.0938 8.47375 10.7238 7.84375 11.5 7.84375C12.2762 7.84375 12.9062 8.47375 12.9062 9.25ZM17.4062 9.25C17.4062 10.0262 16.7762 10.6562 16 10.6562C15.2238 10.6562 14.5938 10.0262 14.5938 9.25C14.5938 8.47375 15.2238 7.84375 16 7.84375C16.7762 7.84375 17.4062 8.47375 17.4062 9.25Z" fill="#4285F4"/>
</svg>
