<svg width="35" height="35" viewBox="0 0 35 35" fill="none" xmlns="http://www.w3.org/2000/svg">
<path d="M27.44 6.86799L21.0263 4.01826C18.8169 3.0368 16.1831 3.0368 13.9737 4.01826L7.56003 6.86799C4.92045 8.04049 3.28125 10.4233 3.28125 13.0862V21.9092C3.28125 24.5721 4.92045 26.9534 7.56003 28.1274L13.9752 30.9771C15.069 31.4628 16.2677 31.7062 17.4664 31.7106C17.4781 31.7106 17.4883 31.7179 17.5 31.7179C17.5117 31.7179 17.5219 31.712 17.5336 31.7106C18.7323 31.7062 19.931 31.4628 21.0248 30.9771L27.44 28.1274C30.0796 26.9549 31.7188 24.5721 31.7188 21.9092V13.0862C31.7188 10.4233 30.0796 8.04049 27.44 6.86799ZM14.8618 6.0192C15.6887 5.6517 16.5944 5.46929 17.5 5.46929C18.4056 5.46929 19.3127 5.6517 20.1382 6.0192L26.5518 8.86875C26.9835 9.05979 27.3715 9.29889 27.72 9.57014L24.0596 11.1978L13.631 6.56465L14.8618 6.0192ZM8.44666 8.86732L10.9361 7.76183L21.3646 12.395L19.2514 13.3342C18.1985 13.8008 16.7957 13.8023 15.7442 13.3342L7.27707 9.57014C7.62853 9.29744 8.01645 9.05982 8.44666 8.86732ZM8.44817 26.1266C6.61067 25.31 5.46875 23.6942 5.46875 21.9078V13.0848C5.46875 12.4708 5.61166 11.8816 5.86395 11.3332L14.8575 15.3307C15.3402 15.545 15.8667 15.6777 16.4062 15.7666V29.4138C15.8754 29.3248 15.3548 29.1935 14.8634 28.9748L8.44817 26.1266ZM29.5312 21.9092C29.5312 23.6942 28.3893 25.3114 26.5518 26.1281L20.1366 28.9776C19.6466 29.1949 19.1246 29.3277 18.5938 29.4152V15.7681C19.1333 15.6791 19.6598 15.5479 20.1425 15.3335L29.136 11.3363C29.3869 11.8846 29.5312 12.4737 29.5312 13.0876V21.9092Z" fill="#324AA0"/>
</svg>
