<svg width="35" height="35" viewBox="0 0 35 35" fill="none" xmlns="http://www.w3.org/2000/svg">
<path d="M9.1437 6.56696L22.9395 12.972L19.2499 14.61C18.1999 15.0926 16.7853 15.078 15.7499 14.6247L4.7395 9.63809C5.4395 8.61443 6.4603 7.76602 7.71447 7.21032L9.1437 6.56696ZM27.2854 7.21032L20.8833 4.35875C18.7687 3.40821 16.2312 3.40821 14.1166 4.35875L11.7979 5.38234L25.5791 11.7731L30.2603 9.63809C29.5603 8.61443 28.5395 7.76602 27.2854 7.21032ZM3.83534 11.6267C3.70409 12.1093 3.64575 12.6065 3.64575 13.1184V21.9512C3.64575 24.4811 5.20614 26.7478 7.71447 27.8593L14.1312 30.7108C14.8458 31.0472 15.6187 31.2518 16.4062 31.3542V17.0814C15.8666 16.9936 15.3416 16.8327 14.8603 16.6279L3.83534 11.6267ZM31.1645 11.6267L20.1395 16.6279C19.6582 16.8327 19.1333 16.9936 18.5937 17.0814V31.3542C19.3812 31.2518 20.1541 31.0472 20.8833 30.7108L27.2854 27.8593C29.7937 26.7478 31.3541 24.4811 31.3541 21.9512V13.1184C31.3541 12.6065 31.2957 12.1093 31.1645 11.6267Z" fill="#324AA0"/>
</svg>
