<svg width="22" height="22" viewBox="0 0 22 22" fill="none" xmlns="http://www.w3.org/2000/svg">
<path d="M18.7762 3.22527C18.0273 2.47544 17.0308 2.06299 15.9693 2.06299C14.9097 2.06299 13.9132 2.47544 13.1625 3.22527L3.50723 12.8806C3.13323 13.2537 2.88941 13.7275 2.80233 14.2491L2.07818 18.5923C2.01677 18.9599 2.13684 19.3357 2.40084 19.5988C2.61901 19.817 2.91414 19.9371 3.21848 19.9371C3.28081 19.9371 3.34503 19.9325 3.40736 19.9215L7.7514 19.1973C8.27207 19.1112 8.74507 18.8673 9.11907 18.4933L18.7743 8.83806C19.5242 8.08823 19.9376 7.0918 19.9376 6.03122C19.9376 4.97064 19.5269 3.9751 18.7762 3.22527ZM8.14925 17.5217C7.97875 17.6922 7.76427 17.8022 7.52777 17.8416L3.48709 18.5144L4.15993 14.4747C4.19935 14.2373 4.31026 14.0228 4.47985 13.8532L11.8893 6.44379L15.5577 10.1122L8.14925 17.5217ZM17.8045 7.86645L16.5303 9.14052L12.8618 5.47207L14.136 4.19789C14.6264 3.70839 15.2772 3.43799 15.9702 3.43799C16.6632 3.43799 17.315 3.70747 17.8045 4.19789C18.294 4.6883 18.5644 5.33911 18.5644 6.03211C18.5644 6.72511 18.294 7.37604 17.8045 7.86645Z" fill="#4285F4"/>
</svg>
