<svg width="42" height="43" viewBox="0 0 42 43" fill="none" xmlns="http://www.w3.org/2000/svg">
<circle cx="21" cy="21.0398" r="21" fill="#48C95F"/>
<path d="M29.3232 12.7055C27.2488 10.6383 24.4829 9.48987 21.5634 9.48987C15.4939 9.48987 10.5768 14.3899 10.5768 20.4383C10.5768 21.9644 10.9187 23.4905 11.5246 24.8613C11.8185 25.5263 11.9297 26.2684 11.7394 26.9701V26.9701C11.1878 29.0038 13.0417 30.8733 15.08 30.3388L15.2716 30.2885C15.9585 30.1084 16.6822 30.2047 17.3395 30.4733C18.6727 31.0183 20.0937 31.3101 21.5634 31.3101C27.6329 31.3101 32.55 26.4101 32.55 20.3617C32.4732 17.5289 31.3976 14.7727 29.3232 12.7055ZM26.8646 24.343C26.6341 24.9555 25.5585 25.568 25.0207 25.6445C24.5598 25.7211 23.9451 25.7211 23.3305 25.568C22.9463 25.4148 22.4085 25.2617 21.7939 24.9555C20.1137 24.2578 18.8021 22.9668 17.9968 22.0094C17.3606 21.2529 16.7302 20.4645 16.3274 19.5619C16.1206 19.0984 15.9549 18.5497 15.9549 17.9883C15.9549 16.6102 16.6463 15.9977 16.8768 15.6914C17.1073 15.3852 17.4146 15.3852 17.6451 15.3852C17.7988 15.3852 18.0293 15.3852 18.1829 15.3852C18.3366 15.3852 18.5671 15.3086 18.7976 15.8445C18.9511 16.2016 19.2411 16.9326 19.4403 17.4033C19.5637 17.6949 19.7846 18.0116 19.6427 18.2945V18.2945C19.5659 18.4477 19.489 18.6008 19.3354 18.7539C19.1817 18.907 19.028 19.1367 18.9512 19.2133C18.7976 19.3664 18.6439 19.5195 18.7976 19.7492C18.9512 20.0555 19.489 20.8977 20.3341 21.6633C21.4098 22.582 22.2549 22.8883 22.5622 23.0414C22.8695 23.1945 23.0232 23.118 23.1768 22.9648C23.3305 22.8117 23.8683 22.1992 24.022 21.893C24.1756 21.5867 24.4061 21.6633 24.6366 21.7398C24.8671 21.8164 26.25 22.5055 26.4805 22.6586V22.6586C26.8458 22.8406 27.0939 23.1747 27.0501 23.5806C27.0259 23.8049 26.9688 24.0661 26.8646 24.343Z" fill="white"/>
</svg>
