<svg width="24" height="24" viewBox="0 0 24 24" fill="none" xmlns="http://www.w3.org/2000/svg">
<path d="M18.2088 8.45996L19.7088 6.95996C20.0988 6.56996 20.0988 5.93004 19.7088 5.54004C19.3188 5.15004 18.6788 5.15004 18.2888 5.54004L16.7888 7.04004C16.7288 7.11004 16.6888 7.18 16.6488 7.25C15.5988 6.5 14.3488 5.99007 12.9988 5.82007V4.25H13.9988C14.5488 4.25 14.9988 3.8 14.9988 3.25C14.9988 2.7 14.5488 2.25 13.9988 2.25H9.99878C9.44878 2.25 8.99878 2.7 8.99878 3.25C8.99878 3.8 9.44878 4.25 9.99878 4.25H10.9988V5.82007C7.05878 6.31007 3.99878 9.68 3.99878 13.75C3.99878 18.16 7.58878 21.75 11.9988 21.75C16.4088 21.75 19.9988 18.16 19.9988 13.75C19.9988 11.76 19.2688 9.95005 18.0688 8.55005C18.1088 8.52005 18.1688 8.49996 18.2088 8.45996ZM14.6188 17.03C14.4388 17.18 14.2188 17.25 13.9988 17.25C13.7088 17.25 13.4188 17.1201 13.2188 16.8701L11.2188 14.3701C11.0788 14.2001 10.9988 13.98 10.9988 13.75V10.25C10.9988 9.7 11.4488 9.25 11.9988 9.25C12.5488 9.25 12.9988 9.7 12.9988 10.25V13.3999L14.7788 15.6299C15.1288 16.0599 15.0588 16.69 14.6188 17.03Z" fill="#FBBC04"/>
</svg>
