<svg width="24" height="24" viewBox="0 0 24 24" fill="none" xmlns="http://www.w3.org/2000/svg">
<path d="M9.7348 8.4L10.9824 6.4044C11.4532 5.6504 12.2652 5.2 13.1548 5.2H16.8V1.2C16.8 0.979203 16.6208 0.800003 16.4 0.800003H8.4V4C8.4 4.6616 7.8616 5.2 7.2 5.2H4V8.4H9.7348ZM10.6 2.4H14.6C14.9316 2.4 15.2 2.6688 15.2 3C15.2 3.3312 14.9316 3.6 14.6 3.6H10.6C10.2684 3.6 10 3.3312 10 3C10 2.6688 10.2684 2.4 10.6 2.4Z" fill="#0E964C"/>
<path d="M16 10.4C12.4656 10.4 9.59998 13.2656 9.59998 16.8C9.59998 20.3344 12.4656 23.2 16 23.2C19.5344 23.2 22.4 20.3344 22.4 16.8C22.4 13.2656 19.5344 10.4 16 10.4ZM16 16C17.5436 16 18.8 17.0764 18.8 18.4C18.8 19.4852 17.9552 20.4032 16.8 20.6988V20.8C16.8 21.2416 16.4416 21.6 16 21.6C15.5584 21.6 15.2 21.2416 15.2 20.8V20.6988C14.1468 20.422 13.5104 19.6404 13.2756 19.1396C13.2244 19.0296 13.2 18.914 13.2 18.8C13.2 18.3552 13.562 18 14 18C14.3008 18 14.5888 18.1708 14.7244 18.4604C14.7584 18.5272 15.1232 19.2 16 19.2C16.6392 19.2 17.2 18.826 17.2 18.4C17.2 17.974 16.6392 17.6 16 17.6C14.4564 17.6 13.2 16.5236 13.2 15.2C13.2 14.1148 14.0448 13.1968 15.2 12.9012V12.8C15.2 12.3584 15.5584 12 16 12C16.4416 12 16.8 12.3584 16.8 12.8V12.9012C17.8532 13.178 18.4896 13.9596 18.7244 14.4604C18.7756 14.5704 18.8 14.686 18.8 14.8C18.8 15.244 18.4388 15.6 18 15.6C17.7 15.6 17.412 15.4296 17.2756 15.1396C17.2416 15.0728 16.8768 14.4 16 14.4C15.3608 14.4 14.8 14.774 14.8 15.2C14.8 15.626 15.3608 16 16 16Z" fill="#0E964C"/>
<path d="M4.2832 4.4H7.2C7.4208 4.4 7.6 4.2208 7.6 4V1.0832C7.6 0.912403 7.4608 0.800003 7.3148 0.800003C7.2452 0.800003 7.1744 0.825203 7.1168 0.883203L4.0828 3.9172C4.024 3.9756 4 4.0484 4 4.1192C4 4.2632 4.114 4.4 4.2832 4.4Z" fill="#0E964C"/>
<path d="M16 9.2C17.1308 9.2 18.2003 9.4536 19.1647 9.8968L19.9387 7.7688C19.9776 7.662 20 7.5492 20 7.4352C20 6.866 19.5588 6.4 18.9328 6.4H13.1548C12.6852 6.4 12.2488 6.642 11.9996 7.0404L10.4 9.6H2.25475C1.61795 9.6 1.19995 10.0916 1.19995 10.6024C1.19995 10.7268 1.21795 10.8508 1.25995 10.968L4.55635 20.1248C4.70235 20.5296 5.08675 20.8 5.51755 20.8H9.54635C8.82435 19.6372 8.39995 18.2696 8.39995 16.8C8.39995 12.5504 11.8512 9.2 16 9.2Z" fill="#0E964C"/>
</svg>
