<svg width="35" height="35" viewBox="0 0 35 35" fill="none" xmlns="http://www.w3.org/2000/svg">
<path d="M31.7188 13.1264C31.7188 13.0083 31.6998 12.8916 31.6619 12.7793L30.0752 8.01799C29.1316 5.1859 26.4906 3.28125 23.504 3.28125H11.496C8.50937 3.28125 5.86981 5.18444 4.92481 8.01799L3.33813 12.7793C3.30021 12.8916 3.28125 13.0083 3.28125 13.1264C3.28271 14.5527 3.84417 15.8419 4.73958 16.8161V26.25C4.73958 29.2658 7.1925 31.7188 10.2083 31.7188H15.7164V26.25C15.7164 25.2452 16.5346 24.4271 17.5393 24.4271C18.5441 24.4271 19.3623 25.2452 19.3623 26.25V31.7188H24.7917C27.8075 31.7188 30.2604 29.2658 30.2604 26.25V16.8161C31.1558 15.8404 31.7173 14.5527 31.7188 13.1264ZM6.99998 8.70923C7.64602 6.77111 9.45291 5.46875 11.496 5.46875H23.504C25.5471 5.46875 27.354 6.77111 28 8.70923L29.5269 13.2898C29.4408 15.0501 28.0379 16.4062 26.2646 16.4062C24.7873 16.4062 23.3435 15.467 22.906 14.2216C22.7529 13.7826 22.3388 13.4896 21.8736 13.4896H21.8691C21.4025 13.491 20.9883 13.7885 20.8381 14.2289C20.4138 15.4699 18.9773 16.4062 17.4971 16.4062C16.0169 16.4062 14.5804 15.4699 14.156 14.2289C14.0058 13.7885 13.5917 13.491 13.125 13.4896H13.1206C12.6569 13.4896 12.2413 13.7826 12.0881 14.2216C11.6506 15.467 10.2069 16.4062 8.73104 16.4062C6.95771 16.4062 5.55479 15.0501 5.46875 13.2898L6.99998 8.70923ZM24.7917 29.5312H21.5498V26.25C21.5498 24.0377 19.7502 22.2396 17.5393 22.2396C15.3285 22.2396 13.5289 24.0377 13.5289 26.25V29.5312H10.2083C8.39854 29.5312 6.92708 28.0598 6.92708 26.25V18.2598C7.49583 18.4625 8.09811 18.5938 8.7354 18.5938C10.4183 18.5938 12.0443 17.8383 13.1191 16.6585C14.1881 17.8398 15.8113 18.5938 17.5 18.5938C19.1888 18.5938 20.8119 17.8383 21.8809 16.6585C22.9557 17.8398 24.5817 18.5938 26.2646 18.5938C26.9019 18.5938 27.5042 18.4625 28.0729 18.2598V26.25C28.0729 28.0583 26.6015 29.5312 24.7917 29.5312Z" fill="#41416E"/>
</svg>
