<svg width="20" height="20" viewBox="0 0 20 20" fill="none" xmlns="http://www.w3.org/2000/svg">
<path d="M9.38769 1.16054C9.64745 0.668211 10.3526 0.66821 10.6123 1.16054L13.2033 6.07135C13.3035 6.26121 13.486 6.39386 13.6976 6.43046L19.1687 7.3771C19.7172 7.472 19.9351 8.1426 19.5471 8.54178L15.6773 12.5235C15.5277 12.6774 15.4579 12.892 15.4885 13.1045L16.2789 18.6004C16.3581 19.1514 15.7877 19.5658 15.2881 19.3202L10.3055 16.8702C10.1128 16.7755 9.88716 16.7755 9.69452 16.8702L4.71188 19.3202C4.21235 19.5658 3.64191 19.1514 3.72114 18.6004L4.5115 13.1045C4.54206 12.892 4.47232 12.6774 4.3227 12.5235L0.452907 8.54178C0.0649406 8.1426 0.282829 7.472 0.831334 7.3771L6.30244 6.43046C6.51397 6.39386 6.69655 6.26121 6.79672 6.07135L9.38769 1.16054Z" fill="#FBBC04"/>
</svg>
