<svg width="35" height="35" viewBox="0 0 35 35" fill="none" xmlns="http://www.w3.org/2000/svg">
<path d="M29.8959 26.25C29.8959 29.0646 27.6063 31.3541 24.7917 31.3541H21.1897V27.7083C21.1897 25.6958 19.5563 24.0625 17.5438 24.0625C15.5313 24.0625 13.898 25.6958 13.898 27.7083V31.3541H10.2084C7.39379 31.3541 5.10421 29.0646 5.10421 26.25V19.4689C6.27087 20.0668 7.56878 20.4166 8.73544 20.4166C10.3834 20.4166 11.9875 19.7313 13.125 18.6375C14.248 19.7313 15.8521 20.4166 17.5 20.4166C19.148 20.4166 20.7521 19.7313 21.875 18.6375C23.0125 19.7313 24.6167 20.4166 26.2646 20.4166C27.4313 20.4166 28.7292 20.0668 29.8959 19.4689V26.25ZM31.3163 12.8946L29.7296 8.13296C28.8356 5.44817 26.3332 3.64581 23.504 3.64581H11.4961C8.66691 3.64581 6.16589 5.44817 5.27048 8.13296L3.68379 12.8946C3.659 12.9705 3.64587 13.0462 3.64587 13.1264C3.65025 15.941 5.93253 18.2291 8.73544 18.2291C10.4679 18.2291 12.1305 17.3818 13.1207 16.0911C14.1021 17.3818 15.7632 18.2291 17.5 18.2291C19.2369 18.2291 20.8979 17.3818 21.8794 16.0911C22.8696 17.3818 24.5336 18.2291 26.2646 18.2291C29.0661 18.2291 31.3498 15.941 31.3542 13.1264C31.3542 13.0462 31.3411 12.9705 31.3163 12.8946Z" fill="#324AA0"/>
</svg>
