<svg width="23" height="23" viewBox="0 0 23 23" fill="none" xmlns="http://www.w3.org/2000/svg">
<path d="M20.6332 19.6161L16.1347 15.1177C17.279 13.7464 17.969 11.984 17.969 10.0625C17.969 5.70304 14.4222 2.15625 10.0627 2.15625C5.70329 2.15625 2.15649 5.70304 2.15649 10.0625C2.15649 14.422 5.70329 17.9687 10.0627 17.9687C11.9842 17.9687 13.7466 17.2788 15.1179 16.1346L19.6164 20.6329C19.7563 20.7729 19.9403 20.8437 20.1243 20.8437C20.3083 20.8437 20.4923 20.7738 20.6322 20.6329C20.9139 20.3522 20.914 19.8969 20.6332 19.6161ZM3.59399 10.0625C3.59399 6.49558 6.49583 3.59375 10.0627 3.59375C13.6297 3.59375 16.5315 6.49558 16.5315 10.0625C16.5315 13.6294 13.6297 16.5312 10.0627 16.5312C6.49583 16.5312 3.59399 13.6294 3.59399 10.0625Z" fill="#41416E"/>
</svg>
