<svg width="35" height="35" viewBox="0 0 35 35" fill="none" xmlns="http://www.w3.org/2000/svg">
<path d="M31.5715 14.1085C31.2099 12.9856 30.2547 12.1837 29.0778 12.0145L22.982 11.1424L20.2592 5.70567C19.7357 4.66005 18.6799 4.01111 17.5001 4.01111C16.3203 4.01111 15.2645 4.66005 14.7409 5.70567L12.0182 11.1424L5.92237 12.0159C4.7455 12.1836 3.7903 12.9871 3.42864 14.1085C3.07134 15.2183 3.37321 16.4143 4.21904 17.2251L8.6203 21.4513L7.58196 27.4158C7.38217 28.5592 7.84301 29.6968 8.78363 30.3866C9.32905 30.7862 9.96779 30.9888 10.6124 30.9888C11.0995 30.9888 11.5894 30.8722 12.043 30.6374L17.4986 27.811L22.9542 30.6374C24.0101 31.1829 25.2584 31.0866 26.2151 30.3866C27.1557 29.6968 27.6165 28.5592 27.4167 27.4158L26.3784 21.4513L30.7796 17.2251C31.6269 16.4128 31.9288 15.2183 31.5715 14.1085ZM29.2659 15.6472L24.4446 20.2774C24.1821 20.5297 24.0626 20.8957 24.1253 21.253L25.2628 27.7922C25.3444 28.2574 25.0513 28.5271 24.923 28.6219C24.8151 28.6992 24.4286 28.937 23.962 28.6949L18.0032 25.6075C17.6867 25.4442 17.3119 25.4442 16.9969 25.6075L11.0382 28.6949C10.573 28.9384 10.1851 28.7007 10.0772 28.6219C9.94883 28.5271 9.6557 28.2574 9.73737 27.7907L10.8749 21.253C10.9376 20.8942 10.8165 20.5283 10.5555 20.2774L5.73425 15.6472C5.38717 15.3132 5.46152 14.9283 5.5111 14.7781C5.56215 14.622 5.73276 14.2516 6.23297 14.1801L12.8947 13.2263C13.249 13.1752 13.5567 12.9536 13.7172 12.6328L16.6965 6.68424C16.9167 6.24383 17.3324 6.19718 17.5001 6.19718C17.6678 6.19718 18.0819 6.24383 18.3036 6.68424L21.283 12.6328C21.4434 12.9536 21.7511 13.1752 22.1055 13.2263L28.7672 14.1787C29.2674 14.2501 29.438 14.6204 29.489 14.7765C29.5372 14.9281 29.613 15.3132 29.2659 15.6472Z" fill="#41416E"/>
</svg>
