<svg width="22" height="22" viewBox="0 0 22 22" fill="none" xmlns="http://www.w3.org/2000/svg">
<path d="M19.25 4.8116H15.9876C15.4935 4.8116 15.0563 4.49627 14.9004 4.02877L14.6108 3.15887C14.3917 2.50254 13.7802 2.0625 13.0891 2.0625H8.90997C8.21881 2.0625 7.60741 2.50252 7.38833 3.15977L7.09868 4.02877C6.94285 4.49718 6.50557 4.8125 6.01148 4.8125H2.75C2.3705 4.8125 2.0625 5.1205 2.0625 5.5C2.0625 5.8795 2.3705 6.1875 2.75 6.1875H3.93981L4.64292 16.7292C4.763 18.5286 6.26909 19.9375 8.07309 19.9375H13.9278C15.7309 19.9375 17.2379 18.5277 17.358 16.7292L18.0611 6.1875H19.25C19.6295 6.1875 19.9375 5.8795 19.9375 5.5C19.9375 5.1205 19.6295 4.8116 19.25 4.8116ZM8.69272 3.59337C8.72389 3.49987 8.81097 3.4366 8.90997 3.4366H13.0891C13.1881 3.4366 13.2752 3.4999 13.3063 3.59248L13.596 4.46237C13.6363 4.58337 13.6867 4.69979 13.7436 4.81071H8.25459C8.31142 4.69888 8.36185 4.58339 8.40218 4.46148L8.69272 3.59337ZM15.9848 16.6366C15.9133 17.7165 15.0095 18.5616 13.9269 18.5616H8.07219C6.99053 18.5616 6.08573 17.7165 6.01423 16.6366L5.31761 6.1866H6.01148C6.10957 6.1866 6.20583 6.17467 6.30208 6.16367C6.34058 6.17008 6.37544 6.1866 6.41577 6.1866H15.5824C15.6228 6.1866 15.6576 6.17008 15.6961 6.16367C15.7923 6.17467 15.8877 6.1866 15.9867 6.1866H16.6806L15.9848 16.6366ZM13.5208 10.0824V14.6658C13.5208 15.0453 13.2128 15.3533 12.8333 15.3533C12.4538 15.3533 12.1458 15.0453 12.1458 14.6658V10.0824C12.1458 9.70294 12.4538 9.39494 12.8333 9.39494C13.2128 9.39494 13.5208 9.70294 13.5208 10.0824ZM9.85417 10.0824V14.6658C9.85417 15.0453 9.54617 15.3533 9.16667 15.3533C8.78717 15.3533 8.47917 15.0453 8.47917 14.6658V10.0824C8.47917 9.70294 8.78717 9.39494 9.16667 9.39494C9.54617 9.39494 9.85417 9.70294 9.85417 10.0824Z" fill="#B91F1F"/>
</svg>
